<svg xmlns="http://www.w3.org/2000/svg" xmlns:xlink="http://www.w3.org/1999/xlink" width="1080" zoomAndPan="magnify" viewBox="0 0 810 809.999993" height="1080" preserveAspectRatio="xMidYMid meet" version="1.2"><defs><clipPath id="f975f9238b"><path d="M 0 512.785156 L 297.214844 512.785156 L 297.214844 810 L 0 810 Z M 0 512.785156 "/></clipPath><clipPath id="51b61cf339"><path d="M 512.785156 512.785156 L 810 512.785156 L 810 810 L 512.785156 810 Z M 512.785156 512.785156 "/></clipPath><clipPath id="97400e67d9"><path d="M 0 0 L 297.214844 0 L 297.214844 297.214844 L 0 297.214844 Z M 0 0 "/></clipPath><clipPath id="84db3dbfb6"><path d="M 512.785156 0 L 810 0 L 810 297.214844 L 512.785156 297.214844 Z M 512.785156 0 "/></clipPath><clipPath id="2485e81b14"><path d="M 194 194 L 616 194 L 616 616 L 194 616 Z M 194 194 "/></clipPath><clipPath id="d1050610ff"><path d="M 194.839844 405 L 405 194.835938 L 615.164062 405 L 405 615.160156 Z M 194.839844 405 "/></clipPath></defs><g id="1b877709a5"><rect x="0" width="810" y="0" height="809.999993" style="fill:#ffffff;fill-opacity:1;stroke:none;"/><rect x="0" width="810" y="0" height="809.999993" style="fill:#ffffff;fill-opacity:1;stroke:none;"/><g clip-rule="nonzero" clip-path="url(#f975f9238b)"><path style=" stroke:none;fill-rule:nonzero;fill:#919191;fill-opacity:1;" d="M 0 512.785156 L 297.214844 512.785156 L 297.214844 810 L 0 810 Z M 0 512.785156 "/></g><g clip-rule="nonzero" clip-path="url(#51b61cf339)"><path style=" stroke:none;fill-rule:nonzero;fill:#919191;fill-opacity:1;" d="M 512.785156 512.785156 L 810 512.785156 L 810 810 L 512.785156 810 Z M 512.785156 512.785156 "/></g><g clip-rule="nonzero" clip-path="url(#97400e67d9)"><path style=" stroke:none;fill-rule:nonzero;fill:#919191;fill-opacity:1;" d="M 0 0 L 297.214844 0 L 297.214844 297.214844 L 0 297.214844 Z M 0 0 "/></g><g clip-rule="nonzero" clip-path="url(#84db3dbfb6)"><path style=" stroke:none;fill-rule:nonzero;fill:#919191;fill-opacity:1;" d="M 512.785156 0 L 810 0 L 810 297.214844 L 512.785156 297.214844 Z M 512.785156 0 "/></g><g clip-rule="nonzero" clip-path="url(#2485e81b14)"><g clip-rule="nonzero" clip-path="url(#d1050610ff)"><path style=" stroke:none;fill-rule:nonzero;fill:#919191;fill-opacity:1;" d="M 194.839844 405 L 405 194.835938 L 615.164062 405 L 405 615.160156 Z M 194.839844 405 "/></g></g></g></svg>